<mxfile host="app.diagrams.net" modified="2021-04-29T09:28:41.426Z" agent="5.0 (Windows NT 10.0; Win64; x64) AppleWebKit/537.36 (KHTML, like Gecko) Chrome/90.0.4430.93 Safari/537.36" etag="wfFWrZBiLBcPwUwSO0ab" version="14.6.6" type="github">
  <diagram id="WCnYM7NKycXBdt8jRVAT" name="Page-1">
    <mxGraphModel dx="1455" dy="748" grid="1" gridSize="10" guides="1" tooltips="0" connect="1" arrows="1" fold="1" page="1" pageScale="1" pageWidth="827" pageHeight="1169" math="0" shadow="0">
      <root>
        <mxCell id="0" />
        <mxCell id="1" parent="0" />
        <mxCell id="t1WHR_yJm78Ypirh6VzU-71" value="" style="rounded=0;whiteSpace=wrap;html=1;fillColor=#f5f5f5;strokeColor=#666666;fontColor=#333333;rotation=0;" parent="1" vertex="1">
          <mxGeometry x="340" y="1103" width="320" height="40" as="geometry" />
        </mxCell>
        <mxCell id="t1WHR_yJm78Ypirh6VzU-69" value="" style="rounded=0;whiteSpace=wrap;html=1;fillColor=#f5f5f5;strokeColor=#666666;fontColor=#333333;rotation=0;" parent="1" vertex="1">
          <mxGeometry x="90" y="972.5" width="320" height="107.5" as="geometry" />
        </mxCell>
        <mxCell id="t1WHR_yJm78Ypirh6VzU-52" value="" style="shape=singleArrow;whiteSpace=wrap;html=1;arrowWidth=0.43333333333333335;arrowSize=0.34;fillColor=#f5f5f5;strokeColor=#666666;fontColor=#333333;rotation=0;" parent="1" vertex="1">
          <mxGeometry x="410" y="588.25" width="86" height="53.5" as="geometry" />
        </mxCell>
        <mxCell id="t1WHR_yJm78Ypirh6VzU-67" value="" style="shape=singleArrow;whiteSpace=wrap;html=1;arrowWidth=0.43333333333333335;arrowSize=0.34;fillColor=#f5f5f5;strokeColor=#666666;fontColor=#333333;rotation=-180;" parent="1" vertex="1">
          <mxGeometry x="263.86" y="898.25" width="81.38" height="53.5" as="geometry" />
        </mxCell>
        <mxCell id="t1WHR_yJm78Ypirh6VzU-68" value="" style="rounded=0;whiteSpace=wrap;html=1;fillColor=#f5f5f5;strokeColor=#666666;fontColor=#333333;rotation=0;" parent="1" vertex="1">
          <mxGeometry x="340" y="904.5" width="320" height="40" as="geometry" />
        </mxCell>
        <mxCell id="t1WHR_yJm78Ypirh6VzU-64" value="" style="rounded=0;whiteSpace=wrap;html=1;fillColor=#f5f5f5;strokeColor=#666666;fontColor=#333333;rotation=0;" parent="1" vertex="1">
          <mxGeometry x="107" y="822.5" width="303" height="40" as="geometry" />
        </mxCell>
        <mxCell id="t1WHR_yJm78Ypirh6VzU-65" value="" style="shape=singleArrow;whiteSpace=wrap;html=1;arrowWidth=0.43333333333333335;arrowSize=0.34;fillColor=#f5f5f5;strokeColor=#666666;fontColor=#333333;rotation=0;" parent="1" vertex="1">
          <mxGeometry x="410" y="818.25" width="86" height="53.5" as="geometry" />
        </mxCell>
        <mxCell id="t1WHR_yJm78Ypirh6VzU-54" value="" style="group;rotation=-180;" parent="1" vertex="1" connectable="0">
          <mxGeometry x="240" y="640" width="416.67" height="163.32999999999998" as="geometry" />
        </mxCell>
        <mxCell id="t1WHR_yJm78Ypirh6VzU-55" value="" style="shape=singleArrow;whiteSpace=wrap;html=1;arrowWidth=0.43333333333333335;arrowSize=0.34;fillColor=#f5f5f5;strokeColor=#666666;fontColor=#333333;rotation=-180;" parent="t1WHR_yJm78Ypirh6VzU-54" vertex="1">
          <mxGeometry x="21.67" y="63.33" width="87.5" height="53.33" as="geometry" />
        </mxCell>
        <mxCell id="t1WHR_yJm78Ypirh6VzU-56" value="" style="rounded=0;whiteSpace=wrap;html=1;fillColor=#f5f5f5;strokeColor=#666666;fontColor=#333333;rotation=-180;" parent="t1WHR_yJm78Ypirh6VzU-54" vertex="1">
          <mxGeometry x="101.67" y="39.99" width="312.5" height="106.67" as="geometry" />
        </mxCell>
        <mxCell id="t1WHR_yJm78Ypirh6VzU-14" value="&lt;div style=&quot;color: rgb(0 , 0 , 0) ; font-family: &amp;#34;helvetica&amp;#34; ; font-size: 12px ; font-style: normal ; font-weight: 400 ; letter-spacing: normal ; text-indent: 0px ; text-transform: none ; word-spacing: 0px ; background-color: rgb(248 , 249 , 250) ; text-align: left&quot;&gt;&lt;span style=&quot;font-size: 15px&quot;&gt;洞察17：“碎片化”的零售&lt;/span&gt;&lt;/div&gt;&lt;font style=&quot;color: rgb(0 , 0 , 0) ; font-family: &amp;#34;helvetica&amp;#34; ; font-style: normal ; font-weight: 400 ; letter-spacing: normal ; text-align: center ; text-indent: 0px ; text-transform: none ; word-spacing: 0px ; background-color: rgb(248 , 249 , 250) ; font-size: 15px&quot;&gt;&lt;div style=&quot;text-align: left&quot;&gt;&lt;span&gt;&lt;br&gt;&lt;/span&gt;&lt;/div&gt;&lt;div style=&quot;text-align: left&quot;&gt;&lt;span&gt;洞察18：渠道&amp;nbsp; 重要性被&amp;nbsp; 消费者 取代&lt;/span&gt;&lt;/div&gt;&lt;div style=&quot;text-align: left&quot;&gt;&lt;span&gt;&lt;br&gt;&lt;/span&gt;&lt;/div&gt;&lt;div style=&quot;text-align: left&quot;&gt;&lt;span&gt;洞察19：触达&amp;nbsp; 消费者&amp;nbsp; 之前的环节被重视&lt;/span&gt;&lt;/div&gt;&lt;div style=&quot;text-align: left&quot;&gt;&lt;br&gt;&lt;/div&gt;&lt;/font&gt;&lt;span style=&quot;color: rgba(0 , 0 , 0 , 0) ; font-family: monospace ; font-size: 0px&quot;&gt;%3CmxGraphModel%3E%3Croot%3E%3CmxCell%20id%3D%220%22%2F%3E%3CmxCell%20id%3D%221%22%20parent%3D%220%22%2F%3E%3CmxCell%20id%3D%222%22%20value%3D%22%22%20style%3D%22group%22%20vertex%3D%221%22%20connectable%3D%220%22%20parent%3D%221%22%3E%3CmxGeometry%20x%3D%22395%22%20y%3D%22705%22%20width%3D%2240%22%20height%3D%2217%22%20as%3D%22geometry%22%2F%3E%3C%2FmxCell%3E%3CmxCell%20id%3D%223%22%20value%3D%22%22%20style%3D%22shape%3DpartialRectangle%3BwhiteSpace%3Dwrap%3Bhtml%3D1%3Bbottom%3D0%3Bright%3D0%3BfillColor%3Dnone%3B%22%20vertex%3D%221%22%20parent%3D%222%22%3E%3CmxGeometry%20width%3D%225%22%20height%3D%2210%22%20as%3D%22geometry%22%2F%3E%3C%2FmxCell%3E%3CmxCell%20id%3D%224%22%20value%3D%22%22%20style%3D%22shape%3DpartialRectangle%3BwhiteSpace%3Dwrap%3Bhtml%3D1%3Bbottom%3D0%3Bright%3D0%3BfillColor%3Dnone%3Brotation%3D-180%3B%22%20vertex%3D%221%22%20parent%3D%222%22%3E%3CmxGeometry%20x%3D%2235%22%20y%3D%229%22%20width%3D%225%22%20height%3D%228%22%20as%3D%22geometry%22%2F%3E%3C%2FmxCell%3E%3C%2Froot%3E%3C%2FmxGraphModel%3E&lt;/span&gt;" style="text;whiteSpace=wrap;html=1;" parent="t1WHR_yJm78Ypirh6VzU-54" vertex="1">
          <mxGeometry x="107.99999999999997" y="43.33000000000004" width="279" height="100" as="geometry" />
        </mxCell>
        <mxCell id="t1WHR_yJm78Ypirh6VzU-53" value="" style="rounded=0;whiteSpace=wrap;html=1;fillColor=#f5f5f5;strokeColor=#666666;fontColor=#333333;rotation=0;" parent="1" vertex="1">
          <mxGeometry x="100" y="580" width="310" height="70" as="geometry" />
        </mxCell>
        <mxCell id="t1WHR_yJm78Ypirh6VzU-50" value="" style="group;rotation=-180;" parent="1" vertex="1" connectable="0">
          <mxGeometry x="240" y="387.5" width="414.17" height="163.32999999999998" as="geometry" />
        </mxCell>
        <mxCell id="t1WHR_yJm78Ypirh6VzU-48" value="" style="shape=singleArrow;whiteSpace=wrap;html=1;arrowWidth=0.43333333333333335;arrowSize=0.34;fillColor=#f5f5f5;strokeColor=#666666;fontColor=#333333;rotation=-180;" parent="t1WHR_yJm78Ypirh6VzU-50" vertex="1">
          <mxGeometry x="21.67" y="63.33" width="75.83" height="53.33" as="geometry" />
        </mxCell>
        <mxCell id="t1WHR_yJm78Ypirh6VzU-49" value="" style="rounded=0;whiteSpace=wrap;html=1;fillColor=#f5f5f5;strokeColor=#666666;fontColor=#333333;rotation=-180;" parent="t1WHR_yJm78Ypirh6VzU-50" vertex="1">
          <mxGeometry x="97.5" y="23.33" width="316.67" height="140" as="geometry" />
        </mxCell>
        <mxCell id="t1WHR_yJm78Ypirh6VzU-1" value="&lt;b&gt;数据痛点&lt;/b&gt;" style="shape=step;perimeter=stepPerimeter;whiteSpace=wrap;html=1;fixedSize=1;size=16;fillColor=#1ba1e2;strokeColor=#006EAF;fontColor=#ffffff;" parent="1" vertex="1">
          <mxGeometry x="441.67" y="215" width="156" height="35" as="geometry" />
        </mxCell>
        <mxCell id="t1WHR_yJm78Ypirh6VzU-3" value="" style="shape=singleArrow;whiteSpace=wrap;html=1;arrowWidth=0.43333333333333335;arrowSize=0.34;fillColor=#f5f5f5;strokeColor=#666666;fontColor=#333333;" parent="1" vertex="1">
          <mxGeometry x="341" y="207.5" width="96" height="50" as="geometry" />
        </mxCell>
        <mxCell id="t1WHR_yJm78Ypirh6VzU-4" value="" style="rounded=0;whiteSpace=wrap;html=1;fillColor=#f5f5f5;strokeColor=#666666;fontColor=#333333;" parent="1" vertex="1">
          <mxGeometry x="41" y="180" width="300" height="120" as="geometry" />
        </mxCell>
        <mxCell id="t1WHR_yJm78Ypirh6VzU-5" value="&lt;b&gt;&lt;font style=&quot;font-size: 18px&quot;&gt;零售的25个洞察&lt;/font&gt;&lt;/b&gt;" style="text;html=1;align=center;verticalAlign=middle;resizable=0;points=[];autosize=1;strokeColor=none;" parent="1" vertex="1">
          <mxGeometry x="41" y="10" width="140" height="20" as="geometry" />
        </mxCell>
        <mxCell id="t1WHR_yJm78Ypirh6VzU-6" value="洞察1：数据孤岛&lt;br&gt;洞察2：数据割裂&lt;br&gt;洞察3：数据和业务脱节&lt;br&gt;洞察4：数据治理成本高&lt;br&gt;&lt;font color=&quot;#c3abd0&quot;&gt;洞察5：数据采集难&lt;/font&gt;&lt;br&gt;洞察6：数据隐私" style="text;html=1;align=left;verticalAlign=middle;resizable=0;points=[];autosize=1;strokeColor=none;fontSize=15;" parent="1" vertex="1">
          <mxGeometry x="51" y="185" width="170" height="110" as="geometry" />
        </mxCell>
        <mxCell id="t1WHR_yJm78Ypirh6VzU-7" value="&lt;div style=&quot;text-align: left&quot;&gt;&lt;span style=&quot;font-size: 15px&quot;&gt;洞察7：透过需求看本质&lt;/span&gt;&lt;/div&gt;&lt;font style=&quot;font-size: 15px&quot;&gt;&lt;div style=&quot;text-align: left&quot;&gt;&lt;span&gt;洞察8：对技术没概念&lt;/span&gt;&lt;/div&gt;&lt;div style=&quot;text-align: left&quot;&gt;&lt;span&gt;&lt;font color=&quot;#c3abd0&quot;&gt;洞察9：盲目跟风数字化&lt;/font&gt;&lt;/span&gt;&lt;/div&gt;&lt;div style=&quot;text-align: left&quot;&gt;&lt;span&gt;&lt;font color=&quot;#c3abd0&quot;&gt;洞察10：无从下手数字化&lt;/font&gt;&lt;/span&gt;&lt;/div&gt;&lt;div style=&quot;text-align: left&quot;&gt;&lt;span&gt;&lt;font color=&quot;#c3abd0&quot;&gt;洞察11：工具崇拜&lt;/font&gt;&lt;/span&gt;&lt;/div&gt;&lt;div style=&quot;text-align: left&quot;&gt;&lt;span&gt;&lt;font color=&quot;#c3abd0&quot;&gt;洞察12：概念崇拜&lt;/font&gt;&lt;/span&gt;&lt;/div&gt;&lt;div style=&quot;text-align: left&quot;&gt;&lt;span&gt;&lt;font color=&quot;#c3abd0&quot;&gt;洞察13：盲目“向钱看”&lt;/font&gt;&lt;/span&gt;&lt;/div&gt;&lt;/font&gt;" style="text;html=1;align=center;verticalAlign=middle;resizable=0;points=[];autosize=1;strokeColor=none;" parent="1" vertex="1">
          <mxGeometry x="338" y="427.5" width="180" height="100" as="geometry" />
        </mxCell>
        <mxCell id="t1WHR_yJm78Ypirh6VzU-10" value="" style="shape=step;perimeter=stepPerimeter;whiteSpace=wrap;html=1;fixedSize=1;size=16;rotation=-180;fillColor=#1ba1e2;strokeColor=#006EAF;fontColor=#ffffff;" parent="1" vertex="1">
          <mxGeometry x="100" y="460" width="156" height="35" as="geometry" />
        </mxCell>
        <mxCell id="t1WHR_yJm78Ypirh6VzU-11" value="&lt;b&gt;&lt;font color=&quot;#ffffff&quot;&gt;思维意识痛点&lt;/font&gt;&lt;/b&gt;" style="text;html=1;align=center;verticalAlign=middle;resizable=0;points=[];autosize=1;strokeColor=none;" parent="1" vertex="1">
          <mxGeometry x="138" y="467.5" width="90" height="20" as="geometry" />
        </mxCell>
        <mxCell id="t1WHR_yJm78Ypirh6VzU-12" value="&lt;div style=&quot;color: rgb(0 , 0 , 0) ; font-family: &amp;#34;helvetica&amp;#34; ; font-size: 12px ; font-style: normal ; font-weight: 400 ; letter-spacing: normal ; text-indent: 0px ; text-transform: none ; word-spacing: 0px ; background-color: rgb(248 , 249 , 250) ; text-align: left&quot;&gt;&lt;span style=&quot;font-size: 15px&quot;&gt;洞察14：人员能力不足&lt;/span&gt;&lt;/div&gt;&lt;font style=&quot;color: rgb(0 , 0 , 0) ; font-family: &amp;#34;helvetica&amp;#34; ; font-style: normal ; font-weight: 400 ; letter-spacing: normal ; text-align: center ; text-indent: 0px ; text-transform: none ; word-spacing: 0px ; background-color: rgb(248 , 249 , 250) ; font-size: 15px&quot;&gt;&lt;div style=&quot;text-align: left&quot;&gt;&lt;span&gt;洞察15：企业能力欠缺&lt;/span&gt;&lt;/div&gt;&lt;div style=&quot;text-align: left&quot;&gt;&lt;span&gt;洞察16：基于现状的相对高门槛&lt;/span&gt;&lt;/div&gt;&lt;div style=&quot;text-align: left&quot;&gt;&lt;br&gt;&lt;/div&gt;&lt;/font&gt;" style="text;whiteSpace=wrap;html=1;" parent="1" vertex="1">
          <mxGeometry x="110" y="580" width="220" height="70" as="geometry" />
        </mxCell>
        <mxCell id="t1WHR_yJm78Ypirh6VzU-13" value="&lt;b&gt;能力和基础设施痛点&lt;/b&gt;" style="shape=step;perimeter=stepPerimeter;whiteSpace=wrap;html=1;fixedSize=1;size=16;fillColor=#1ba1e2;strokeColor=#006EAF;fontColor=#ffffff;" parent="1" vertex="1">
          <mxGeometry x="498.16999999999996" y="597.5" width="156" height="35" as="geometry" />
        </mxCell>
        <mxCell id="t1WHR_yJm78Ypirh6VzU-18" value="" style="group" parent="1" vertex="1" connectable="0">
          <mxGeometry x="395" y="705" width="40" height="17" as="geometry" />
        </mxCell>
        <mxCell id="t1WHR_yJm78Ypirh6VzU-16" value="" style="shape=partialRectangle;whiteSpace=wrap;html=1;bottom=0;right=0;fillColor=none;strokeWidth=2;" parent="t1WHR_yJm78Ypirh6VzU-18" vertex="1">
          <mxGeometry x="15" y="19" width="5" height="10" as="geometry" />
        </mxCell>
        <mxCell id="t1WHR_yJm78Ypirh6VzU-17" value="" style="shape=partialRectangle;whiteSpace=wrap;html=1;bottom=0;right=0;fillColor=none;rotation=-180;strokeWidth=2;" parent="t1WHR_yJm78Ypirh6VzU-18" vertex="1">
          <mxGeometry x="45" y="30" width="5" height="8" as="geometry" />
        </mxCell>
        <mxCell id="t1WHR_yJm78Ypirh6VzU-19" value="" style="group" parent="1" vertex="1" connectable="0">
          <mxGeometry x="506" y="740" width="40" height="17" as="geometry" />
        </mxCell>
        <mxCell id="t1WHR_yJm78Ypirh6VzU-20" value="" style="shape=partialRectangle;whiteSpace=wrap;html=1;bottom=0;right=0;fillColor=none;strokeWidth=2;" parent="t1WHR_yJm78Ypirh6VzU-19" vertex="1">
          <mxGeometry x="10" y="-15" width="5" height="10" as="geometry" />
        </mxCell>
        <mxCell id="t1WHR_yJm78Ypirh6VzU-21" value="" style="shape=partialRectangle;whiteSpace=wrap;html=1;bottom=0;right=0;fillColor=none;rotation=-180;strokeWidth=2;" parent="t1WHR_yJm78Ypirh6VzU-19" vertex="1">
          <mxGeometry x="54" y="-4" width="5" height="8" as="geometry" />
        </mxCell>
        <mxCell id="t1WHR_yJm78Ypirh6VzU-22" value="" style="shape=partialRectangle;whiteSpace=wrap;html=1;bottom=0;right=0;fillColor=none;strokeWidth=2;" parent="1" vertex="1">
          <mxGeometry x="447" y="761" width="5" height="10" as="geometry" />
        </mxCell>
        <mxCell id="t1WHR_yJm78Ypirh6VzU-23" value="" style="shape=partialRectangle;whiteSpace=wrap;html=1;bottom=0;right=0;fillColor=none;rotation=-180;strokeWidth=2;" parent="1" vertex="1">
          <mxGeometry x="493.5" y="772" width="5" height="8" as="geometry" />
        </mxCell>
        <mxCell id="t1WHR_yJm78Ypirh6VzU-34" value="&lt;div style=&quot;color: rgb(0 , 0 , 0) ; font-family: &amp;#34;helvetica&amp;#34; ; font-size: 12px ; font-style: normal ; font-weight: 400 ; letter-spacing: normal ; text-indent: 0px ; text-transform: none ; word-spacing: 0px ; background-color: rgb(248 , 249 , 250) ; text-align: left&quot;&gt;&lt;span style=&quot;font-size: 15px&quot;&gt;洞察20：&amp;nbsp; 管理&amp;nbsp; &amp;nbsp;&lt;/span&gt;&lt;span style=&quot;font-size: 15px&quot;&gt;的绝对穿透力&lt;/span&gt;&lt;/div&gt;&lt;span style=&quot;color: rgba(0 , 0 , 0 , 0) ; font-family: monospace ; font-size: 0px&quot;&gt;%3CmxGraphModel%3E%3Croot%3E%3CmxCell%20id%3D%220%22%2F%3E%3CmxCell%20id%3D%221%22%20parent%3D%220%22%2F%3E%3CmxCell%20id%3D%222%22%20value%3D%22%22%20style%3D%22group%22%20vertex%3D%221%22%20connectable%3D%220%22%20parent%3D%221%22%3E%3CmxGeometry%20x%3D%22395%22%20y%3D%22705%22%20width%3D%2240%22%20height%3D%2217%22%20as%3D%22geometry%22%2F%3E%3C%2FmxCell%3E%3CmxCell%20id%3D%223%22%20value%3D%22%22%20style%3D%22shape%3DpartialRectangle%3BwhiteSpace%3Dwrap%3Bhtml%3D1%3Bbottom%3D0%3Bright%3D0%3BfillColor%3Dnone%3B%22%20vertex%3D%221%22%20parent%3D%222%22%3E%3CmxGeometry%20width%3D%225%22%20height%3D%2210%22%20as%3D%22geometry%22%2F%3E%3C%2FmxCell%3E%3CmxCell%20id%3D%224%22%20value%3D%22%22%20style%3D%22shape%3DpartialRectangle%3BwhiteSpace%3Dwrap%3Bhtml%3D1%3Bbottom%3D0%3Bright%3D0%3BfillColor%3Dnone%3Brotation%3D-180%3B%22%20vertex%3D%221%22%20parent%3D%222%22%3E%3CmxGeometry%20x%3D%2235%22%20y%3D%229%22%20width%3D%225%22%20height%3D%228%22%20as%3D%22geometry%22%2F%3E%3C%2FmxCell%3E%3C%2Froot%3E%3C%2FmxGraphModel%3E&lt;/span&gt;" style="text;whiteSpace=wrap;html=1;" parent="1" vertex="1">
          <mxGeometry x="113.5" y="827.5" width="208" height="30" as="geometry" />
        </mxCell>
        <mxCell id="t1WHR_yJm78Ypirh6VzU-35" value="" style="shape=partialRectangle;whiteSpace=wrap;html=1;bottom=0;right=0;fillColor=none;strokeWidth=2;" parent="1" vertex="1">
          <mxGeometry x="181" y="834" width="5" height="10" as="geometry" />
        </mxCell>
        <mxCell id="t1WHR_yJm78Ypirh6VzU-36" value="" style="shape=partialRectangle;whiteSpace=wrap;html=1;bottom=0;right=0;fillColor=none;rotation=-180;strokeWidth=2;" parent="1" vertex="1">
          <mxGeometry x="215" y="845" width="5" height="8" as="geometry" />
        </mxCell>
        <mxCell id="t1WHR_yJm78Ypirh6VzU-37" value="&lt;b&gt;管理痛点&lt;/b&gt;" style="shape=step;perimeter=stepPerimeter;whiteSpace=wrap;html=1;fixedSize=1;size=16;fillColor=#1ba1e2;strokeColor=#006EAF;fontColor=#ffffff;" parent="1" vertex="1">
          <mxGeometry x="500.67" y="827.5" width="156" height="35" as="geometry" />
        </mxCell>
        <mxCell id="t1WHR_yJm78Ypirh6VzU-38" value="&lt;div style=&quot;color: rgb(0 , 0 , 0) ; font-family: &amp;#34;helvetica&amp;#34; ; font-size: 12px ; font-style: normal ; font-weight: 400 ; letter-spacing: normal ; text-indent: 0px ; text-transform: none ; word-spacing: 0px ; background-color: rgb(248 , 249 , 250) ; text-align: left&quot;&gt;&lt;span style=&quot;font-size: 15px&quot;&gt;洞察21：私域流量带来内生增量&lt;/span&gt;&lt;/div&gt;&lt;span style=&quot;color: rgba(0 , 0 , 0 , 0) ; font-family: monospace ; font-size: 0px&quot;&gt;%3CmxGraphModel%3E%3Croot%3E%3CmxCell%20id%3D%220%22%2F%3E%3CmxCell%20id%3D%221%22%20parent%3D%220%22%2F%3E%3CmxCell%20id%3D%222%22%20value%3D%22%22%20style%3D%22group%22%20vertex%3D%221%22%20connectable%3D%220%22%20parent%3D%221%22%3E%3CmxGeometry%20x%3D%22395%22%20y%3D%22705%22%20width%3D%2240%22%20height%3D%2217%22%20as%3D%22geometry%22%2F%3E%3C%2FmxCell%3E%3CmxCell%20id%3D%223%22%20value%3D%22%22%20style%3D%22shape%3DpartialRectangle%3BwhiteSpace%3Dwrap%3Bhtml%3D1%3Bbottom%3D0%3Bright%3D0%3BfillColor%3Dnone%3B%22%20vertex%3D%221%22%20parent%3D%222%22%3E%3CmxGeometry%20width%3D%225%22%20height%3D%2210%22%20as%3D%22geometry%22%2F%3E%3C%2FmxCell%3E%3CmxCell%20id%3D%224%22%20value%3D%22%22%20style%3D%22shape%3DpartialRectangle%3BwhiteSpace%3Dwrap%3Bhtml%3D1%3Bbottom%3D0%3Bright%3D0%3BfillColor%3Dnone%3Brotation%3D-180%3B%22%20vertex%3D%221%22%20parent%3D%222%22%3E%3CmxGeometry%20x%3D%2235%22%20y%3D%229%22%20width%3D%225%22%20height%3D%228%22%20as%3D%22geometry%22%2F%3E%3C%2FmxCell%3E%3C%2Froot%3E%3C%2FmxGraphModel%3E&lt;/span&gt;" style="text;whiteSpace=wrap;html=1;" parent="1" vertex="1">
          <mxGeometry x="345" y="910" width="220" height="30" as="geometry" />
        </mxCell>
        <mxCell id="t1WHR_yJm78Ypirh6VzU-39" value="" style="shape=step;perimeter=stepPerimeter;whiteSpace=wrap;html=1;fixedSize=1;size=16;rotation=-180;fillColor=#1ba1e2;strokeColor=#006EAF;fontColor=#ffffff;" parent="1" vertex="1">
          <mxGeometry x="102" y="712.5" width="156" height="35" as="geometry" />
        </mxCell>
        <mxCell id="t1WHR_yJm78Ypirh6VzU-40" value="&lt;b&gt;&lt;font color=&quot;#ffffff&quot;&gt;渠道和环节痛点&lt;/font&gt;&lt;/b&gt;" style="text;html=1;align=center;verticalAlign=middle;resizable=0;points=[];autosize=1;strokeColor=none;" parent="1" vertex="1">
          <mxGeometry x="135" y="720" width="100" height="20" as="geometry" />
        </mxCell>
        <mxCell id="t1WHR_yJm78Ypirh6VzU-41" value="" style="shape=step;perimeter=stepPerimeter;whiteSpace=wrap;html=1;fixedSize=1;size=16;rotation=-180;fillColor=#1ba1e2;strokeColor=#006EAF;fontColor=#ffffff;" parent="1" vertex="1">
          <mxGeometry x="100" y="907.5" width="156" height="35" as="geometry" />
        </mxCell>
        <mxCell id="t1WHR_yJm78Ypirh6VzU-42" value="&lt;b&gt;增长痛点&lt;/b&gt;" style="text;html=1;align=center;verticalAlign=middle;resizable=0;points=[];autosize=1;fillColor=#1ba1e2;fontColor=#ffffff;strokeColor=#1BA1E2;" parent="1" vertex="1">
          <mxGeometry x="155" y="915" width="60" height="20" as="geometry" />
        </mxCell>
        <mxCell id="t1WHR_yJm78Ypirh6VzU-43" value="&lt;div style=&quot;color: rgb(0 , 0 , 0) ; font-family: &amp;#34;helvetica&amp;#34; ; font-size: 12px ; font-style: normal ; font-weight: 400 ; letter-spacing: normal ; text-indent: 0px ; text-transform: none ; word-spacing: 0px ; background-color: rgb(248 , 249 , 250) ; text-align: left&quot;&gt;&lt;span style=&quot;font-size: 15px&quot;&gt;洞察22：技术对门店人效的提升&lt;/span&gt;&lt;/div&gt;&lt;font style=&quot;color: rgb(0 , 0 , 0) ; font-family: &amp;#34;helvetica&amp;#34; ; font-style: normal ; font-weight: 400 ; letter-spacing: normal ; text-align: center ; text-indent: 0px ; text-transform: none ; word-spacing: 0px ; background-color: rgb(248 , 249 , 250) ; font-size: 15px&quot;&gt;&lt;div style=&quot;text-align: left&quot;&gt;&lt;span&gt;&lt;br&gt;&lt;/span&gt;&lt;/div&gt;&lt;div style=&quot;text-align: left&quot;&gt;&lt;span&gt;洞察23：低成本 “在线”&lt;/span&gt;&lt;/div&gt;&lt;div style=&quot;text-align: left&quot;&gt;&lt;span&gt;&lt;br&gt;&lt;/span&gt;&lt;/div&gt;&lt;div style=&quot;text-align: left&quot;&gt;&lt;span&gt;洞察24：数字化ROI为决策提供量化标准&lt;/span&gt;&lt;/div&gt;&lt;div style=&quot;text-align: left&quot;&gt;&lt;br&gt;&lt;/div&gt;&lt;/font&gt;&lt;span style=&quot;color: rgba(0 , 0 , 0 , 0) ; font-family: monospace ; font-size: 0px&quot;&gt;%3CmxGraphModel%3E%3Croot%3E%3CmxCell%20id%3D%220%22%2F%3E%3CmxCell%20id%3D%221%22%20parent%3D%220%22%2F%3E%3CmxCell%20id%3D%222%22%20value%3D%22%22%20style%3D%22group%22%20vertex%3D%221%22%20connectable%3D%220%22%20parent%3D%221%22%3E%3CmxGeometry%20x%3D%22395%22%20y%3D%22705%22%20width%3D%2240%22%20height%3D%2217%22%20as%3D%22geometry%22%2F%3E%3C%2FmxCell%3E%3CmxCell%20id%3D%223%22%20value%3D%22%22%20style%3D%22shape%3DpartialRectangle%3BwhiteSpace%3Dwrap%3Bhtml%3D1%3Bbottom%3D0%3Bright%3D0%3BfillColor%3Dnone%3B%22%20vertex%3D%221%22%20parent%3D%222%22%3E%3CmxGeometry%20width%3D%225%22%20height%3D%2210%22%20as%3D%22geometry%22%2F%3E%3C%2FmxCell%3E%3CmxCell%20id%3D%224%22%20value%3D%22%22%20style%3D%22shape%3DpartialRectangle%3BwhiteSpace%3Dwrap%3Bhtml%3D1%3Bbottom%3D0%3Bright%3D0%3BfillColor%3Dnone%3Brotation%3D-180%3B%22%20vertex%3D%221%22%20parent%3D%222%22%3E%3CmxGeometry%20x%3D%2235%22%20y%3D%229%22%20width%3D%225%22%20height%3D%228%22%20as%3D%22geometry%22%2F%3E%3C%2FmxCell%3E%3C%2Froot%3E%3C%2FmxGraphModel%3E&lt;/span&gt;" style="text;whiteSpace=wrap;html=1;" parent="1" vertex="1">
          <mxGeometry x="100" y="976" width="278" height="100" as="geometry" />
        </mxCell>
        <mxCell id="t1WHR_yJm78Ypirh6VzU-44" value="&lt;b&gt;人力和成本痛点&lt;/b&gt;" style="shape=step;perimeter=stepPerimeter;whiteSpace=wrap;html=1;fixedSize=1;size=16;fillColor=#1ba1e2;strokeColor=#006EAF;fontColor=#ffffff;" parent="1" vertex="1">
          <mxGeometry x="500.67" y="1008.75" width="156" height="35" as="geometry" />
        </mxCell>
        <mxCell id="t1WHR_yJm78Ypirh6VzU-45" value="&lt;div style=&quot;color: rgb(0 , 0 , 0) ; font-family: &amp;#34;helvetica&amp;#34; ; font-size: 12px ; font-style: normal ; font-weight: 400 ; letter-spacing: normal ; text-indent: 0px ; text-transform: none ; word-spacing: 0px ; background-color: rgb(248 , 249 , 250) ; text-align: left&quot;&gt;&lt;span style=&quot;font-size: 15px&quot;&gt;洞察25：过于依赖上游供应链&lt;/span&gt;&lt;/div&gt;&lt;span style=&quot;color: rgba(0 , 0 , 0 , 0) ; font-family: monospace ; font-size: 0px&quot;&gt;%3CmxGraphModel%3E%3Croot%3E%3CmxCell%20id%3D%220%22%2F%3E%3CmxCell%20id%3D%221%22%20parent%3D%220%22%2F%3E%3CmxCell%20id%3D%222%22%20value%3D%22%22%20style%3D%22group%22%20vertex%3D%221%22%20connectable%3D%220%22%20parent%3D%221%22%3E%3CmxGeometry%20x%3D%22395%22%20y%3D%22705%22%20width%3D%2240%22%20height%3D%2217%22%20as%3D%22geometry%22%2F%3E%3C%2FmxCell%3E%3CmxCell%20id%3D%223%22%20value%3D%22%22%20style%3D%22shape%3DpartialRectangle%3BwhiteSpace%3Dwrap%3Bhtml%3D1%3Bbottom%3D0%3Bright%3D0%3BfillColor%3Dnone%3B%22%20vertex%3D%221%22%20parent%3D%222%22%3E%3CmxGeometry%20width%3D%225%22%20height%3D%2210%22%20as%3D%22geometry%22%2F%3E%3C%2FmxCell%3E%3CmxCell%20id%3D%224%22%20value%3D%22%22%20style%3D%22shape%3DpartialRectangle%3BwhiteSpace%3Dwrap%3Bhtml%3D1%3Bbottom%3D0%3Bright%3D0%3BfillColor%3Dnone%3Brotation%3D-180%3B%22%20vertex%3D%221%22%20parent%3D%222%22%3E%3CmxGeometry%20x%3D%2235%22%20y%3D%229%22%20width%3D%225%22%20height%3D%228%22%20as%3D%22geometry%22%2F%3E%3C%2FmxCell%3E%3C%2Froot%3E%3C%2FmxGraphModel%3E&lt;/span&gt;" style="text;whiteSpace=wrap;html=1;" parent="1" vertex="1">
          <mxGeometry x="350" y="1110" width="220" height="30" as="geometry" />
        </mxCell>
        <mxCell id="t1WHR_yJm78Ypirh6VzU-46" value="" style="shape=step;perimeter=stepPerimeter;whiteSpace=wrap;html=1;fixedSize=1;size=16;rotation=-180;fillColor=#1ba1e2;fontColor=#ffffff;strokeColor=#1BA1E2;" parent="1" vertex="1">
          <mxGeometry x="100" y="1105" width="156" height="35" as="geometry" />
        </mxCell>
        <mxCell id="t1WHR_yJm78Ypirh6VzU-47" value="&lt;b&gt;未做自我壁垒建设&lt;/b&gt;" style="text;html=1;align=center;verticalAlign=middle;resizable=0;points=[];autosize=1;fillColor=#1ba1e2;fontColor=#ffffff;strokeColor=#1BA1E2;" parent="1" vertex="1">
          <mxGeometry x="125" y="1112.5" width="110" height="20" as="geometry" />
        </mxCell>
        <mxCell id="t1WHR_yJm78Ypirh6VzU-70" value="" style="shape=singleArrow;whiteSpace=wrap;html=1;arrowWidth=0.43333333333333335;arrowSize=0.34;fillColor=#f5f5f5;strokeColor=#666666;fontColor=#333333;rotation=0;" parent="1" vertex="1">
          <mxGeometry x="410" y="998.75" width="86" height="53.5" as="geometry" />
        </mxCell>
        <mxCell id="t1WHR_yJm78Ypirh6VzU-72" value="" style="shape=singleArrow;whiteSpace=wrap;html=1;arrowWidth=0.43333333333333335;arrowSize=0.34;fillColor=#f5f5f5;strokeColor=#666666;fontColor=#333333;rotation=-180;" parent="1" vertex="1">
          <mxGeometry x="258.62" y="1096.25" width="81.38" height="53.5" as="geometry" />
        </mxCell>
        <mxCell id="t1WHR_yJm78Ypirh6VzU-73" value="&lt;b&gt;&lt;font style=&quot;font-size: 15px&quot;&gt;关于数据方面的说明：&lt;/font&gt;&lt;/b&gt;&lt;br&gt;数据孤岛是指：每个人的渠道数据是孤立没有得到最大利用，形成各自孤立割裂状态&lt;br&gt;&lt;div&gt;我们的业务是智能家居设备，依赖于绿米总部而为，还没有培养出自己的业务范围，所以更&lt;/div&gt;&lt;div&gt;谈不上数据与业务的挂钩，能挂的，当下也只有绿米的云平台。&lt;/div&gt;&lt;div&gt;&lt;font color=&quot;#6666ff&quot;&gt;&lt;b&gt;数据采集&lt;/b&gt;&lt;/font&gt;&lt;b&gt;中趋于工勘：&lt;/b&gt;流程和采集回来的数据基本成熟。&lt;/div&gt;&lt;b style=&quot;color: rgb(102 , 102 , 255)&quot;&gt;数据采集&lt;/b&gt;&lt;b&gt;中面向消费者方面不足的有：&lt;/b&gt;消费者的行为、心理、能力。。。&lt;b style=&quot;color: rgb(102 , 102 , 255)&quot;&gt;&lt;br&gt;&lt;/b&gt;&lt;b style=&quot;color: rgb(102 , 102 , 255)&quot;&gt;数据采集&lt;/b&gt;&lt;b&gt;中面向产品与消费者的需求连接：&lt;/b&gt;消费者的逐次单品消费体验与产品成套消费体验的区别研究与应用。&lt;b style=&quot;color: rgb(102 , 102 , 255)&quot;&gt;&lt;br&gt;&lt;/b&gt;&lt;div&gt;&lt;br&gt;&lt;/div&gt;" style="text;html=1;align=left;verticalAlign=middle;resizable=0;points=[];autosize=1;strokeColor=none;" parent="1" vertex="1">
          <mxGeometry x="41" y="60" width="600" height="120" as="geometry" />
        </mxCell>
        <mxCell id="zMGDD60lGkqUc_yGdUke-1" value="&lt;font&gt;&lt;span style=&quot;font-weight: bold ; font-size: 15px&quot;&gt;关于思维意识的说明：&lt;/span&gt;&lt;br&gt;&lt;div&gt;寻找产品的需求：帮助客户了解产品并获得需求，是从自己出发开始的。&lt;/div&gt;&lt;div&gt;技术概念是针对产品在应用场景中能够带来解决的问题的方法，而并不是一味的去索引技术目录。&lt;/div&gt;&lt;div&gt;&lt;br&gt;&lt;/div&gt;&lt;/font&gt;" style="text;html=1;align=left;verticalAlign=middle;resizable=0;points=[];autosize=1;strokeColor=none;" vertex="1" parent="1">
          <mxGeometry x="41" y="310" width="530" height="60" as="geometry" />
        </mxCell>
      </root>
    </mxGraphModel>
  </diagram>
</mxfile>
